<svg xmlns="http://www.w3.org/2000/svg" xmlns:xlink="http://www.w3.org/1999/xlink" width="500" zoomAndPan="magnify" viewBox="0 0 375 374.999991" height="500" preserveAspectRatio="xMidYMid meet" version="1.0"><defs><g/><clipPath id="25947c84ff"><path d="M 155 25.3125 L 220 25.3125 L 220 146 L 155 146 Z M 155 25.3125 " clip-rule="nonzero"/></clipPath><clipPath id="f8f7726fad"><path d="M 174 145 L 201 145 L 201 201.5625 L 174 201.5625 Z M 174 145 " clip-rule="nonzero"/></clipPath><clipPath id="1d3d9e2671"><path d="M 193 39 L 260.039062 39 L 260.039062 194 L 193 194 Z M 193 39 " clip-rule="nonzero"/></clipPath><clipPath id="7878d82b82"><path d="M 114.539062 39 L 182 39 L 182 194 L 114.539062 194 Z M 114.539062 39 " clip-rule="nonzero"/></clipPath></defs><g clip-path="url(#25947c84ff)"><path fill="#f8f6f6" d="M 187.460938 69.925781 C 184.304688 69.925781 181.75 67.371094 181.75 64.21875 C 181.75 61.0625 184.304688 58.507812 187.460938 58.507812 C 190.613281 58.507812 193.167969 61.0625 193.167969 64.21875 C 193.167969 67.371094 190.613281 69.925781 187.460938 69.925781 Z M 208.460938 81.078125 C 207.839844 72.917969 205.78125 64.765625 203.183594 57.304688 C 196.902344 39.269531 187.460938 25.308594 187.460938 25.308594 C 187.460938 25.308594 178.015625 39.269531 171.734375 57.304688 C 169.136719 64.765625 167.078125 72.917969 166.457031 81.078125 L 155.808594 89.492188 L 164.289062 141.195312 L 171.597656 128.328125 C 172.855469 135.359375 173.917969 140.746094 174.222656 142.261719 C 174.105469 142.402344 174.027344 142.546875 174.027344 142.699219 C 174.027344 144.164062 180.039062 145.355469 187.460938 145.355469 C 194.878906 145.355469 200.894531 144.164062 200.894531 142.699219 C 200.894531 142.546875 200.816406 142.402344 200.695312 142.261719 C 201 140.746094 202.0625 135.359375 203.320312 128.328125 L 210.628906 141.195312 L 219.109375 89.492188 L 208.460938 81.078125 " fill-opacity="1" fill-rule="nonzero"/></g><g clip-path="url(#f8f7726fad)"><path fill="#f33a59" d="M 187.460938 147.257812 C 182.933594 147.257812 177.855469 146.917969 174.828125 145.664062 L 178.917969 168.316406 L 179.976562 152.953125 C 179.976562 152.953125 187.148438 195.894531 187.460938 201.296875 C 187.769531 195.894531 194.941406 152.953125 194.941406 152.953125 L 196 168.316406 L 200.089844 145.664062 C 197.0625 146.917969 191.984375 147.257812 187.460938 147.257812 " fill-opacity="1" fill-rule="nonzero"/></g><g clip-path="url(#1d3d9e2671)"><path fill="#f8f6f6" d="M 260.265625 111.332031 C 260.265625 76.074219 235.207031 46.675781 201.925781 39.964844 C 203.742188 43.757812 205.601562 48.007812 207.308594 52.566406 C 231.820312 60.84375 249.46875 84.027344 249.46875 111.332031 C 249.46875 142.238281 226.863281 167.855469 197.285156 172.566406 L 193.769531 193.546875 L 199.445312 183.148438 C 233.949219 177.433594 260.265625 147.460938 260.265625 111.332031 " fill-opacity="1" fill-rule="nonzero"/></g><g clip-path="url(#7878d82b82)"><path fill="#f8f6f6" d="M 177.660156 172.566406 L 177.636719 172.582031 L 177.636719 172.566406 C 148.054688 167.855469 125.449219 142.238281 125.449219 111.332031 C 125.449219 84.027344 143.097656 60.84375 167.613281 52.566406 C 169.316406 48.007812 171.175781 43.757812 172.992188 39.964844 C 139.714844 46.675781 114.652344 76.074219 114.652344 111.332031 C 114.652344 147.46875 140.984375 177.449219 175.503906 183.152344 L 181.175781 193.546875 L 177.660156 172.566406 " fill-opacity="1" fill-rule="nonzero"/></g><g fill="#f33a59" fill-opacity="1"><g transform="translate(19.387891, 267.13001)"><g><path d="M 5.265625 -48.984375 L 21 -48.984375 L 21 -12.53125 L 46.140625 -12.53125 L 46.140625 0 L 5.265625 0 Z M 5.265625 -48.984375 "/></g></g></g><g fill="#f33a59" fill-opacity="1"><g transform="translate(66.875647, 267.13001)"><g><path d="M 38.09375 0 L 36.03125 -6.90625 L 18.875 -6.90625 L 16.796875 0 L 0.71875 0 L 18.578125 -48.984375 L 36.890625 -48.984375 L 54.75 0 Z M 22.140625 -17.875 L 32.75 -17.875 L 27.625 -35.3125 L 27.34375 -35.3125 Z M 22.140625 -17.875 "/></g></g></g><g fill="#f33a59" fill-opacity="1"><g transform="translate(122.266158, 267.13001)"><g><path d="M 54.046875 -19.71875 C 54.046875 -13.03125 51.929688 -7.925781 47.703125 -4.40625 C 43.484375 -0.894531 37.476562 0.859375 29.6875 0.859375 C 21.90625 0.859375 15.890625 -0.894531 11.640625 -4.40625 C 7.390625 -7.925781 5.265625 -13.03125 5.265625 -19.71875 L 5.265625 -48.984375 L 21 -48.984375 L 21 -19.9375 C 21 -17.1875 21.734375 -14.988281 23.203125 -13.34375 C 24.679688 -11.707031 26.820312 -10.890625 29.625 -10.890625 C 32.425781 -10.890625 34.570312 -11.71875 36.0625 -13.375 C 37.5625 -15.039062 38.3125 -17.226562 38.3125 -19.9375 L 38.3125 -48.984375 L 54.046875 -48.984375 Z M 54.046875 -19.71875 "/></g></g></g><g fill="#f33a59" fill-opacity="1"><g transform="translate(181.572443, 267.13001)"><g><path d="M 40.296875 0 L 19.71875 -23.78125 L 19.71875 0 L 5.265625 0 L 5.265625 -48.984375 L 19.015625 -48.984375 L 39.59375 -24.84375 L 39.59375 -48.984375 L 54.046875 -48.984375 L 54.046875 0 Z M 40.296875 0 "/></g></g></g><g fill="#f33a59" fill-opacity="1"><g transform="translate(240.878729, 267.13001)"><g><path d="M 28.625 -49.84375 C 35.882812 -49.84375 41.625 -48.023438 45.84375 -44.390625 C 50.070312 -40.765625 52.1875 -35.582031 52.1875 -28.84375 L 37.171875 -28.84375 C 37.171875 -31.6875 36.421875 -33.9375 34.921875 -35.59375 C 33.429688 -37.257812 31.304688 -38.09375 28.546875 -38.09375 C 25.367188 -38.09375 23.03125 -37.09375 21.53125 -35.09375 C 20.039062 -33.101562 19.296875 -30.328125 19.296875 -26.765625 L 19.296875 -22.21875 C 19.296875 -18.707031 20.039062 -15.941406 21.53125 -13.921875 C 23.03125 -11.898438 25.320312 -10.890625 28.40625 -10.890625 C 31.445312 -10.890625 33.75 -11.671875 35.3125 -13.234375 C 36.882812 -14.804688 37.671875 -17.015625 37.671875 -19.859375 L 52.1875 -19.859375 C 52.1875 -13.171875 50.132812 -8.046875 46.03125 -4.484375 C 41.925781 -0.921875 36.125 0.859375 28.625 0.859375 C 20.269531 0.859375 13.941406 -1.273438 9.640625 -5.546875 C 5.347656 -9.828125 3.203125 -16.144531 3.203125 -24.5 C 3.203125 -32.851562 5.347656 -39.164062 9.640625 -43.4375 C 13.941406 -47.707031 20.269531 -49.84375 28.625 -49.84375 Z M 28.625 -49.84375 "/></g></g></g><g fill="#f33a59" fill-opacity="1"><g transform="translate(296.269239, 267.13001)"><g><path d="M 38.3125 0 L 38.3125 -18.578125 L 21 -18.578125 L 21 0 L 5.265625 0 L 5.265625 -48.984375 L 21 -48.984375 L 21 -31.109375 L 38.3125 -31.109375 L 38.3125 -48.984375 L 54.046875 -48.984375 L 54.046875 0 Z M 38.3125 0 "/></g></g></g><g fill="#f33a59" fill-opacity="1"><g transform="translate(98.5471, 328.481445)"><g><path d="M 15.515625 -16.890625 L 15.515625 0 L 8.21875 0 L 8.21875 -16.890625 L 0.765625 -16.890625 L 0.765625 -22.703125 L 22.9375 -22.703125 L 22.9375 -16.890625 Z M 15.515625 -16.890625 "/></g></g></g><g fill="#f33a59" fill-opacity="1"><g transform="translate(122.371324, 328.481445)"><g><path d="M 23.984375 -15.734375 C 23.984375 -14.347656 23.609375 -13.09375 22.859375 -11.96875 C 22.117188 -10.851562 21.035156 -10.03125 19.609375 -9.5 L 24.65625 0 L 16.46875 0 L 12.4375 -8.28125 L 9.734375 -8.28125 L 9.734375 0 L 2.4375 0 L 2.4375 -22.703125 L 16.328125 -22.703125 C 17.960938 -22.703125 19.351562 -22.390625 20.5 -21.765625 C 21.65625 -21.140625 22.523438 -20.289062 23.109375 -19.21875 C 23.691406 -18.15625 23.984375 -16.992188 23.984375 -15.734375 Z M 16.5625 -15.4375 C 16.5625 -16.03125 16.363281 -16.523438 15.96875 -16.921875 C 15.570312 -17.316406 15.085938 -17.515625 14.515625 -17.515625 L 9.734375 -17.515625 L 9.734375 -13.328125 L 14.515625 -13.328125 C 15.085938 -13.328125 15.570312 -13.53125 15.96875 -13.9375 C 16.363281 -14.34375 16.5625 -14.84375 16.5625 -15.4375 Z M 16.5625 -15.4375 "/></g></g></g><g fill="#f33a59" fill-opacity="1"><g transform="translate(148.043407, 328.481445)"><g><path d="M 17.65625 0 L 16.703125 -3.203125 L 8.75 -3.203125 L 7.78125 0 L 0.328125 0 L 8.609375 -22.703125 L 17.09375 -22.703125 L 25.375 0 Z M 10.265625 -8.28125 L 15.1875 -8.28125 L 12.796875 -16.375 L 12.671875 -16.375 Z M 10.265625 -8.28125 "/></g></g></g><g fill="#f33a59" fill-opacity="1"><g transform="translate(173.71549, 328.481445)"><g><path d="M 13.265625 -23.09375 C 16.628906 -23.09375 19.289062 -22.25 21.25 -20.5625 C 23.207031 -18.882812 24.1875 -16.484375 24.1875 -13.359375 L 17.21875 -13.359375 C 17.21875 -14.679688 16.867188 -15.726562 16.171875 -16.5 C 15.484375 -17.269531 14.503906 -17.65625 13.234375 -17.65625 C 11.753906 -17.65625 10.664062 -17.191406 9.96875 -16.265625 C 9.28125 -15.347656 8.9375 -14.0625 8.9375 -12.40625 L 8.9375 -10.296875 C 8.9375 -8.671875 9.28125 -7.390625 9.96875 -6.453125 C 10.664062 -5.515625 11.734375 -5.046875 13.171875 -5.046875 C 14.578125 -5.046875 15.640625 -5.410156 16.359375 -6.140625 C 17.085938 -6.867188 17.453125 -7.890625 17.453125 -9.203125 L 24.1875 -9.203125 C 24.1875 -6.097656 23.234375 -3.722656 21.328125 -2.078125 C 19.429688 -0.429688 16.742188 0.390625 13.265625 0.390625 C 9.390625 0.390625 6.457031 -0.597656 4.46875 -2.578125 C 2.476562 -4.554688 1.484375 -7.484375 1.484375 -11.359375 C 1.484375 -15.222656 2.476562 -18.144531 4.46875 -20.125 C 6.457031 -22.101562 9.390625 -23.09375 13.265625 -23.09375 Z M 13.265625 -23.09375 "/></g></g></g><g fill="#f33a59" fill-opacity="1"><g transform="translate(199.387573, 328.481445)"><g><path d="M 17.8125 -22.703125 L 26.859375 -22.703125 L 18.71875 -13.359375 L 27.03125 0 L 18.40625 0 L 13.6875 -8.3125 L 9.734375 -5.078125 L 9.734375 0 L 2.4375 0 L 2.4375 -22.703125 L 9.734375 -22.703125 L 9.734375 -13 Z M 17.8125 -22.703125 "/></g></g></g><g fill="#f33a59" fill-opacity="1"><g transform="translate(226.874525, 328.481445)"><g><path d="M 2.4375 -22.703125 L 22.078125 -22.703125 L 22.078125 -17.265625 L 9.734375 -17.265625 L 9.734375 -14.125 L 20.296875 -14.125 L 20.296875 -8.90625 L 9.734375 -8.90625 L 9.734375 -5.4375 L 22.3125 -5.4375 L 22.3125 0 L 2.4375 0 Z M 2.4375 -22.703125 "/></g></g></g><g fill="#f33a59" fill-opacity="1"><g transform="translate(250.698749, 328.481445)"><g><path d="M 23.984375 -15.734375 C 23.984375 -14.347656 23.609375 -13.09375 22.859375 -11.96875 C 22.117188 -10.851562 21.035156 -10.03125 19.609375 -9.5 L 24.65625 0 L 16.46875 0 L 12.4375 -8.28125 L 9.734375 -8.28125 L 9.734375 0 L 2.4375 0 L 2.4375 -22.703125 L 16.328125 -22.703125 C 17.960938 -22.703125 19.351562 -22.390625 20.5 -21.765625 C 21.65625 -21.140625 22.523438 -20.289062 23.109375 -19.21875 C 23.691406 -18.15625 23.984375 -16.992188 23.984375 -15.734375 Z M 16.5625 -15.4375 C 16.5625 -16.03125 16.363281 -16.523438 15.96875 -16.921875 C 15.570312 -17.316406 15.085938 -17.515625 14.515625 -17.515625 L 9.734375 -17.515625 L 9.734375 -13.328125 L 14.515625 -13.328125 C 15.085938 -13.328125 15.570312 -13.53125 15.96875 -13.9375 C 16.363281 -14.34375 16.5625 -14.84375 16.5625 -15.4375 Z M 16.5625 -15.4375 "/></g></g></g></svg>