<svg xmlns="http://www.w3.org/2000/svg" xmlns:xlink="http://www.w3.org/1999/xlink" width="200" zoomAndPan="magnify" viewBox="0 0 150 149.999998" height="200" preserveAspectRatio="xMidYMid meet" version="1.0"><defs><clipPath id="e254f4e1c9"><path d="M 2.039062 4.425781 L 148 4.425781 L 148 145.425781 L 2.039062 145.425781 Z M 2.039062 4.425781 " clip-rule="nonzero"/></clipPath></defs><g clip-path="url(#e254f4e1c9)"><path fill="#aaa8a8" d="M 147.316406 73.730469 C 147.949219 74.363281 147.949219 75.316406 147.316406 75.949219 L 79.828125 144.703125 C 79.507812 145.023438 79.191406 145.179688 78.71875 145.179688 L 68.578125 145.496094 C 68.101562 145.496094 67.785156 145.339844 67.46875 145.023438 C 67.152344 144.703125 66.992188 144.386719 66.992188 143.914062 L 66.992188 116.980469 C 66.992188 116.503906 67.152344 116.1875 67.46875 115.871094 L 108.34375 74.679688 L 67.152344 33.808594 C 66.835938 33.488281 66.675781 33.171875 66.675781 32.699219 L 66.675781 12.578125 C 66.675781 12.101562 66.992188 11.46875 67.46875 11.308594 L 77.609375 4.816406 C 78.082031 4.5 78.558594 4.5 79.035156 4.65625 C 79.191406 4.65625 79.507812 4.816406 79.667969 4.972656 Z M 3.625 145.496094 L 13.921875 145.179688 C 14.398438 145.179688 14.714844 145.023438 15.03125 144.703125 L 82.519531 75.949219 C 83.152344 75.3125 83.152344 74.363281 82.519531 73.730469 L 15.03125 4.972656 C 14.871094 4.816406 14.714844 4.65625 14.398438 4.65625 C 13.921875 4.5 13.289062 4.5 12.972656 4.816406 L 2.832031 11.308594 C 2.355469 11.46875 2.039062 12.101562 2.039062 12.578125 L 2.039062 32.699219 C 2.039062 33.171875 2.199219 33.488281 2.515625 33.808594 L 43.386719 74.679688 L 2.515625 115.871094 C 2.199219 116.1875 2.039062 116.503906 2.039062 116.980469 L 2.039062 143.914062 C 2.039062 144.386719 2.199219 144.703125 2.515625 145.023438 C 2.832031 145.339844 3.148438 145.496094 3.625 145.496094 Z M 3.625 145.496094 " fill-opacity="1" fill-rule="nonzero"/></g></svg>